<?xml version="1.0" standalone="no"?>
<!DOCTYPE svg PUBLIC "-//W3C//DTD SVG 20010904//EN"
 "http://www.w3.org/TR/2001/REC-SVG-20010904/DTD/svg10.dtd">
<svg version="1.0" xmlns="http://www.w3.org/2000/svg"
 width="348.000000pt" height="373.000000pt" viewBox="0 0 348.000000 373.000000"
 preserveAspectRatio="xMidYMid meet">

<g transform="translate(0.000000,373.000000) scale(0.100000,-0.100000)"
fill="#000000" stroke="none">
<path d="M1184 3133 c-9 -73 1 -204 21 -270 20 -67 69 -139 122 -179 43 -33
129 -71 139 -62 3 3 -54 124 -126 268 -72 144 -129 264 -127 266 3 4 50 -71
222 -354 63 -104 96 -149 101 -140 4 7 10 51 12 98 5 113 -18 178 -95 260 -59
64 -188 151 -227 154 -13 0 -22 4 -19 9 2 4 0 7 -6 7 -5 0 -13 -26 -17 -57z"/>
<path d="M2580 3021 c-87 -27 -151 -83 -170 -149 -22 -82 -14 -80 88 19 103
101 158 146 106 89 -16 -19 -63 -72 -103 -117 l-73 -83 31 0 c83 0 164 93 185
213 6 34 5 37 -16 36 -13 0 -34 -4 -48 -8z"/>
<path d="M1696 2568 c-107 -165 -198 -369 -245 -552 -49 -187 -56 -245 -55
-476 0 -193 3 -228 27 -340 28 -133 85 -310 136 -422 l31 -68 75 0 75 0 -16
38 c-35 78 -83 208 -83 222 0 8 16 -16 35 -54 19 -38 55 -100 79 -138 44 -68
45 -68 90 -68 34 0 44 3 38 13 -4 6 -33 50 -64 97 -152 229 -252 505 -274 762
-7 70 -6 78 11 84 210 73 407 217 528 387 52 73 56 87 24 87 -15 0 -40 -19
-70 -54 -93 -106 -263 -217 -406 -265 -92 -31 -94 -30 -87 32 25 217 81 408
181 615 61 128 63 135 48 158 -9 13 -18 24 -20 24 -3 0 -29 -37 -58 -82z m124
-743 c0 -10 -140 -86 -203 -110 -80 -30 -77 -30 -77 -7 0 14 16 22 68 36 37 9
99 32 137 51 82 39 75 36 75 30z"/>
<path d="M529 2106 c-20 -8 -55 -26 -78 -41 -50 -33 -45 -41 40 -80 77 -34
166 -33 217 4 29 20 43 43 25 40 -5 -1 -73 0 -153 1 l-145 3 100 9 c55 5 125
12 155 16 l55 7 -34 24 c-42 30 -128 38 -182 17z"/>
<path d="M2386 1930 c-27 -10 -53 -23 -57 -27 -4 -4 123 -55 282 -112 159 -58
287 -106 286 -108 -2 -2 -136 32 -298 76 -162 43 -296 77 -298 75 -8 -8 69
-113 102 -138 75 -57 123 -71 247 -71 93 0 130 5 193 24 42 13 77 27 77 30 0
15 -112 140 -156 174 -87 68 -148 92 -244 95 -66 1 -96 -2 -134 -18z"/>
<path d="M1875 849 c5 -8 26 -39 47 -70 l39 -56 117 -12 c262 -26 487 -88 712
-196 l135 -65 -50 45 c-222 202 -577 344 -904 362 -88 5 -103 4 -96 -8z"/>
<path d="M1320 781 c-248 -83 -427 -189 -594 -353 -96 -95 -107 -111 -41 -62
93 69 348 192 500 242 66 22 170 50 230 63 61 12 111 23 113 24 1 1 -10 30
-25 63 -21 46 -33 61 -48 61 -11 0 -72 -17 -135 -38z"/>
</g>
</svg>
